<svg width="326" height="73" viewBox="0 0 326 73" fill="none" xmlns="http://www.w3.org/2000/svg">
<path d="M26.4052 72.5754C30.0802 72.5754 33.8602 71.8404 35.2252 71.4204V58.7154C34.0702 59.0304 32.6002 59.3454 31.0252 59.3454C26.0902 59.3454 23.7802 57.0354 23.7802 52.4154V31.8354H35.2252V19.6554H23.7802V0.44043L9.60523 5.69044V19.6554H0.365234V31.8354H9.08023V55.8804C9.08023 67.8504 17.0602 72.5754 26.4052 72.5754ZM44.8803 71.0004H59.5803V41.2854C60.8403 36.3504 65.9853 32.6754 71.5503 32.6754C73.5453 32.6754 75.2253 32.7804 76.9053 33.2004V18.2904C76.2753 18.1854 74.1753 17.9754 73.1253 17.9754C66.6153 17.9754 61.8903 21.4404 59.3703 27.1104V19.6554H44.8803V71.0004ZM107.782 72.5754C118.072 72.5754 124.162 69.8454 128.887 66.8004V54.0954C122.167 58.5054 116.287 60.3954 109.357 60.3954C102.952 60.3954 96.4427 56.5104 96.1277 49.4754H132.457C132.562 48.6354 132.667 46.4304 132.667 45.1704C132.667 29.3154 123.427 17.9754 107.152 17.9754C92.4527 17.9754 80.7977 28.7904 80.7977 44.9604C80.7977 62.7054 92.9777 72.5754 107.782 72.5754ZM96.4427 39.6054C96.7577 34.9854 100.747 30.1554 107.152 30.1554C114.187 30.1554 117.547 34.7754 117.862 39.6054H96.4427ZM201.307 17.9754C192.802 17.9754 187.657 22.2804 185.032 25.3254C181.777 20.4954 176.212 17.9754 170.227 17.9754C163.717 17.9754 159.412 20.4954 156.577 23.7504V19.6554H142.087V71.0004H156.787V36.7704C158.887 33.6204 161.827 31.4154 165.712 31.4154C170.647 31.4154 173.587 34.8804 173.587 40.4454V71.0004H188.287V36.7704V36.4554C190.387 33.5154 193.327 31.4154 197.002 31.4154C201.937 31.4154 204.982 34.8804 204.982 40.4454V71.0004H219.682V36.7704C219.682 24.5904 210.967 17.9754 201.307 17.9754ZM255.974 72.5754C272.564 72.5754 284.009 60.6054 284.009 45.1704C284.009 29.8404 272.564 17.9754 255.974 17.9754C239.384 17.9754 228.044 29.8404 228.044 45.1704C228.044 60.6054 239.384 72.5754 255.974 72.5754ZM255.974 58.7154C248.939 58.7154 243.269 53.6754 243.269 45.1704C243.269 36.8754 248.939 31.7304 255.974 31.7304C263.114 31.7304 268.784 36.8754 268.784 45.1704C268.784 53.6754 263.114 58.7154 255.974 58.7154ZM293.435 71.0004H308.135V41.2854C309.395 36.3504 314.54 32.6754 320.105 32.6754C322.1 32.6754 323.78 32.7804 325.46 33.2004V18.2904C324.83 18.1854 322.73 17.9754 321.68 17.9754C315.17 17.9754 310.445 21.4404 307.925 27.1104V19.6554H293.435V71.0004Z" fill="#334155"/>
</svg>
