<svg version="1.1" id="Layer_1" xmlns="http://www.w3.org/2000/svg" xmlns:xlink="http://www.w3.org/1999/xlink" x="0px" y="0px"
	 width="100%" viewBox="0 0 3000 3588" enable-background="new 0 0 3000 3588" xml:space="preserve">
<path fill="#ffffff" opacity="1.000000" stroke="none" 
	d="
M1466.000000,3590.000000 
	C977.333374,3590.000000 489.666779,3590.000000 2.000131,3590.000000 
	C2.000087,2394.000244 2.000087,1198.000366 2.000044,2.000452 
	C1001.999695,2.000301 2001.999390,2.000301 3001.999268,2.000151 
	C3001.999512,1197.999512 3001.999512,2393.999023 3001.999756,3589.999268 
	C2490.333252,3590.000000 1978.666626,3590.000000 1466.000000,3590.000000 
M2578.881592,931.724060 
	C2577.705811,927.282776 2576.980225,922.660156 2575.276367,918.431580 
	C2567.834961,899.962158 2560.522705,881.422363 2552.394043,863.252441 
	C2539.116699,833.573486 2525.447021,804.064941 2511.563232,774.663818 
	C2494.819336,739.205994 2475.536865,705.088989 2455.362061,671.499817 
	C2443.411377,651.603333 2430.930420,632.007324 2418.133789,612.642212 
	C2406.624756,595.224976 2394.714355,578.045715 2382.321777,561.247620 
	C2371.308105,546.318054 2359.628174,531.859131 2347.810791,517.548889 
	C2333.233643,499.896851 2318.458008,482.394470 2303.292480,465.247986 
	C2293.181396,453.816010 2282.429688,442.928497 2271.628418,432.133881 
	C2252.598389,413.115173 2234.069580,393.495361 2213.935547,375.706299 
	C2189.830811,354.408783 2164.526367,334.432343 2139.231934,314.531433 
	C2123.656738,302.277313 2107.497314,290.673737 2090.936279,279.787842 
	C2070.188477,266.149475 2049.256348,252.641464 2027.504639,240.716965 
	C1997.876465,224.474457 1967.695923,209.157440 1937.185669,194.633652 
	C1915.345459,184.237061 1892.758667,175.318604 1870.169434,166.611435 
	C1847.610718,157.916061 1824.728638,150.024338 1801.810547,142.308472 
	C1784.254883,136.397995 1766.576172,130.978790 1748.308472,127.270523 
	C1727.224487,122.990578 1706.648438,116.215096 1685.570068,111.899231 
	C1659.947388,106.652832 1634.099365,102.375916 1608.218994,98.560081 
	C1587.896484,95.563721 1567.388306,93.793137 1546.940430,91.693207 
	C1534.395996,90.404922 1521.810913,89.509659 1509.242065,88.461731 
	C1500.043701,87.694817 1490.849487,86.452774 1481.640381,86.320160 
	C1456.664185,85.960487 1431.681152,86.065430 1406.700806,86.016335 
	C1400.053345,86.003265 1393.377197,85.723541 1386.764526,86.227730 
	C1375.228516,87.107338 1363.742920,88.626434 1352.215820,89.649429 
	C1333.726807,91.290298 1315.189575,92.438866 1296.731079,94.357147 
	C1274.303101,96.687958 1251.940063,99.638290 1229.540405,102.246689 
	C1219.004395,103.473595 1208.310669,103.809341 1197.927979,105.798950 
	C1170.267944,111.099365 1142.734009,117.060493 1115.157593,122.795204 
	C1103.508057,125.217812 1091.740601,127.224556 1080.268921,130.318054 
	C1061.382202,135.411163 1042.699585,141.258545 1023.918152,146.744598 
	C990.441467,156.523087 957.620056,168.234634 925.423035,181.549057 
	C897.578430,193.063629 869.617432,204.384857 843.200378,219.137527 
	C822.045349,230.951584 800.364075,241.821136 779.158264,253.547302 
	C770.174438,258.515076 761.783813,264.562897 753.169312,270.189850 
	C736.283813,281.219391 719.121887,291.860901 702.652527,303.482269 
	C686.949585,314.562836 671.570862,326.190460 656.785645,338.464142 
	C632.830688,358.349823 608.997437,378.435242 586.026001,399.435211 
	C568.432068,415.519165 551.687988,432.632141 535.579895,450.216370 
	C516.134705,471.443512 497.441589,493.386688 479.039764,515.532471 
	C467.600952,529.298584 457.079376,543.850586 446.555084,558.346741 
	C434.065125,575.550354 421.544891,592.765076 409.894958,610.536804 
	C396.081390,631.609314 382.891846,653.107849 369.975983,674.746521 
	C359.430664,692.413635 349.243774,710.327148 339.703033,728.552856 
	C329.089142,748.828552 319.162323,769.474731 309.345459,790.153870 
	C297.541138,815.019653 285.905609,839.973145 274.699677,865.112793 
	C267.134918,882.083801 260.450073,899.446777 253.351334,916.626038 
	C247.535599,930.700256 241.655701,944.748108 235.868256,958.833984 
	C231.327484,969.885498 226.679596,980.899658 222.448807,992.070312 
	C216.806778,1006.967102 211.655731,1022.049377 206.058716,1036.963745 
	C192.412994,1073.325317 178.599075,1109.619263 168.024643,1147.047607 
	C165.503723,1155.970459 162.017303,1164.616211 159.307800,1173.490967 
	C154.181915,1190.280762 149.134003,1207.098022 144.363739,1223.991577 
	C140.488510,1237.715210 136.972061,1251.543091 133.468597,1265.368286 
	C129.473099,1281.135498 125.629112,1296.941528 121.811035,1312.752930 
	C120.965538,1316.254272 120.585052,1319.865112 119.853165,1323.397095 
	C115.214035,1345.784424 110.016830,1368.071533 106.025681,1390.572998 
	C102.438759,1410.795654 100.133591,1431.246948 97.315247,1451.604492 
	C94.089989,1474.901123 90.558975,1498.163208 87.829041,1521.518433 
	C84.943512,1546.205078 82.453957,1570.952881 80.514618,1595.730713 
	C78.647949,1619.579956 77.276756,1643.486694 76.456665,1667.394653 
	C75.191162,1704.287720 73.985901,1741.200562 73.808159,1778.109985 
	C73.337868,1875.769897 73.244568,1973.432983 73.416405,2071.093994 
	C73.468468,2100.683594 75.129189,2130.267334 75.595161,2159.860596 
	C76.109184,2192.506592 76.056534,2225.161377 76.322716,2257.811768 
	C76.751724,2310.433594 77.230019,2363.054688 77.707993,2415.676270 
	C77.880455,2434.663574 78.095398,2453.650635 78.320084,2472.637451 
	C78.761284,2509.920898 79.296310,2547.203369 79.660408,2584.487793 
	C80.362427,2656.375977 78.953857,2728.274902 82.127998,2800.154297 
	C83.728394,2836.395996 83.292747,2872.729736 83.653877,2909.023193 
	C84.369804,2980.973633 85.003166,3052.924805 85.664391,3124.875732 
	C86.331650,3197.484375 86.891006,3270.094482 87.723511,3342.701172 
	C87.936638,3361.288330 88.362282,3379.916748 89.824005,3398.436523 
	C92.125710,3427.599365 107.760986,3446.127441 134.572800,3456.082764 
	C149.669998,3461.688477 165.816666,3465.021973 181.776291,3467.632324 
	C211.864151,3472.552979 242.113770,3476.577148 272.381134,3480.279053 
	C296.714294,3483.254883 321.152496,3485.441895 345.581299,3487.547363 
	C372.023468,3489.826416 398.480865,3492.191162 424.982422,3493.450439 
	C457.222473,3494.982422 489.515625,3496.130371 521.785583,3496.124512 
	C569.064880,3496.115967 616.343933,3494.925293 663.623352,3494.261475 
	C675.271362,3494.097900 686.851013,3493.198486 698.052063,3489.871338 
	C707.270081,3487.133301 714.369324,3481.938965 718.858337,3472.794678 
	C724.565796,3461.168213 724.540588,3449.012207 724.099609,3436.723145 
	C723.443726,3418.442139 722.412292,3400.174805 721.602905,3381.899170 
	C721.471069,3378.921875 721.896118,3375.911377 721.659119,3372.948486 
	C720.629211,3360.071777 719.154175,3347.224121 718.395020,3334.333496 
	C717.320068,3316.080566 716.860168,3297.792236 715.903870,3279.531250 
	C714.810791,3258.659180 713.383057,3237.804932 712.281433,3216.933350 
	C712.019043,3211.961426 712.865540,3206.925781 712.536438,3201.963623 
	C710.579346,3172.462646 708.302185,3142.982422 706.372986,3113.479736 
	C704.229980,3080.708740 702.305969,3047.923340 700.365784,3015.139404 
	C699.580261,3001.866211 699.080139,2988.576172 698.315979,2975.301514 
	C696.827271,2949.442383 695.181030,2923.592041 693.719360,2897.731201 
	C692.500366,2876.164795 691.410706,2854.590576 690.338562,2833.016113 
	C688.970459,2805.485107 687.522339,2777.956299 686.396423,2750.415039 
	C685.281860,2723.153076 684.522034,2695.876465 683.615967,2668.606201 
	C683.527588,2665.947510 683.616577,2663.278809 683.432922,2660.627930 
	C682.425598,2646.090088 681.058472,2631.570312 680.381165,2617.018066 
	C679.298584,2593.760742 678.785156,2570.477051 677.800049,2547.214600 
	C676.789368,2523.347412 675.237183,2499.501465 674.403809,2475.629150 
	C673.440186,2448.024658 672.790283,2420.404785 672.381104,2392.785889 
	C671.562195,2337.514160 670.841003,2282.240234 670.421814,2226.964355 
	C670.283142,2208.677246 671.350708,2190.384521 671.597961,2172.090332 
	C672.340576,2117.145752 673.373779,2062.200439 673.492859,2007.253418 
	C673.611206,1952.628174 672.406250,1898.000610 672.427002,1843.374268 
	C672.449585,1784.081299 673.021301,1724.786255 673.762024,1665.497192 
	C674.031494,1643.926636 675.025452,1622.339966 676.499634,1600.816162 
	C678.448547,1572.361938 681.439941,1543.980469 683.538208,1515.534912 
	C686.473328,1475.745117 691.292480,1436.222778 698.921326,1397.052002 
	C699.744873,1392.823486 700.187805,1388.515869 701.117554,1384.313721 
	C704.556030,1368.773193 708.198425,1353.277710 711.598389,1337.729004 
	C712.587097,1333.207642 712.634521,1328.465210 713.785706,1323.997437 
	C716.930603,1311.792114 720.330933,1299.649658 723.819763,1287.536865 
	C728.872803,1269.993042 733.631592,1252.344604 739.370972,1235.024170 
	C745.117249,1217.683105 751.708679,1200.610962 758.294861,1183.562012 
	C770.392456,1152.246094 784.013977,1121.665283 803.385010,1093.998535 
	C816.586670,1075.142944 831.347961,1057.712891 850.537659,1044.640381 
	C863.664734,1035.697754 876.761597,1026.588013 890.591003,1018.835632 
	C903.252686,1011.737793 916.415710,1005.163757 931.115540,1002.899292 
	C935.044861,1002.294006 938.994385,1001.795349 942.899414,1001.060669 
	C963.071289,997.265747 982.922791,999.414795 1001.375916,1007.614502 
	C1019.334229,1015.594238 1035.051758,1027.280273 1048.079346,1042.536255 
	C1065.613281,1063.069336 1079.618042,1085.524658 1090.968750,1110.064941 
	C1101.162720,1132.104004 1110.707886,1154.261475 1117.598633,1177.545166 
	C1123.056763,1195.988037 1129.378174,1214.218018 1133.894287,1232.886597 
	C1139.742554,1257.061890 1144.359131,1281.543213 1149.163818,1305.960083 
	C1152.940918,1325.154663 1156.538818,1344.397705 1159.581177,1363.719116 
	C1162.055176,1379.430908 1163.804321,1395.267822 1165.491821,1411.090088 
	C1169.044922,1444.403931 1172.245483,1477.755249 1175.784790,1511.070557 
	C1178.479004,1536.431396 1182.065430,1561.711304 1184.169312,1587.117065 
	C1186.384766,1613.869751 1187.538574,1640.673706 1191.402832,1667.316895 
	C1194.443604,1688.282349 1195.711792,1709.508179 1197.655273,1730.628662 
	C1199.935059,1755.405151 1202.277100,1780.178345 1204.242432,1804.980591 
	C1205.658813,1822.855225 1206.532959,1840.773682 1207.585938,1858.676147 
	C1207.936523,1864.638428 1207.826294,1870.636963 1208.385376,1876.575806 
	C1210.028076,1894.024780 1212.088135,1911.435303 1213.635376,1928.891846 
	C1215.479248,1949.694214 1216.858032,1970.537598 1218.627930,1991.346924 
	C1220.399170,2012.169922 1222.615234,2032.956421 1224.245972,2053.789551 
	C1225.775757,2073.332520 1226.664551,2092.925293 1228.082886,2112.478027 
	C1229.064941,2126.018311 1230.791016,2139.508545 1231.602661,2153.055908 
	C1232.714966,2171.622314 1233.050293,2190.234619 1234.137207,2208.802979 
	C1235.185547,2226.710938 1236.937500,2244.577148 1238.061523,2262.481689 
	C1239.082397,2278.742188 1239.415771,2295.047607 1240.518433,2311.301270 
	C1241.998901,2333.125732 1244.280640,2354.899414 1245.571533,2376.732666 
	C1247.057617,2401.868164 1247.797729,2427.024170 1250.079102,2452.139893 
	C1252.271973,2476.282227 1252.704590,2500.592285 1253.632568,2524.839111 
	C1254.090698,2536.809082 1253.526001,2548.822754 1254.132935,2560.780762 
	C1254.956543,2577.004883 1256.749878,2593.179199 1257.599243,2609.402588 
	C1258.677002,2629.990967 1259.113770,2650.612305 1260.030884,2671.210449 
	C1261.138550,2696.084961 1262.538208,2720.946045 1263.664917,2745.819824 
	C1264.643188,2767.418457 1265.317993,2789.030762 1266.309204,2810.628662 
	C1267.312012,2832.478760 1268.715210,2854.311523 1269.616699,2876.165283 
	C1270.507812,2897.770020 1271.037720,2919.390137 1271.641113,2941.005615 
	C1272.365479,2966.951904 1272.927490,2992.902344 1273.692627,3018.847168 
	C1274.485962,3045.748047 1275.485474,3072.643311 1276.304565,3099.543701 
	C1276.841309,3117.166992 1277.299194,3134.793457 1277.642212,3152.421631 
	C1277.972656,3169.408447 1277.989868,3186.401611 1278.355469,3203.387451 
	C1279.379395,3250.969482 1276.731689,3298.562012 1279.499146,3346.160645 
	C1280.773804,3368.084717 1279.736206,3390.144775 1279.714966,3412.143066 
	C1279.698242,3429.415527 1280.222412,3446.556885 1283.925903,3463.614258 
	C1287.724121,3481.107422 1304.191162,3501.559082 1322.490723,3503.599121 
	C1328.432495,3504.261230 1334.366089,3505.699951 1340.295654,3505.658691 
	C1393.905151,3505.285400 1447.513184,3504.676025 1501.121216,3504.095703 
	C1508.446777,3504.016357 1515.790894,3504.001709 1523.090454,3503.465820 
	C1544.583496,3501.887207 1566.053101,3499.989990 1587.542603,3498.359375 
	C1600.132690,3497.404053 1612.773926,3497.042725 1625.338379,3495.847656 
	C1652.088501,3493.303467 1678.818115,3490.520020 1705.521851,3487.528320 
	C1711.550171,3486.852783 1717.438110,3484.924561 1724.085693,3483.415283 
	C1723.449585,3475.303467 1722.836182,3468.393311 1722.377075,3461.473145 
	C1720.159180,3428.041992 1717.992310,3394.607422 1715.787964,3361.175537 
	C1714.412842,3340.317871 1712.963745,3319.465088 1711.623047,3298.605225 
	C1710.791504,3285.668701 1710.256836,3272.711182 1709.311768,3259.783691 
	C1707.765991,3238.635010 1705.752441,3217.518799 1704.409424,3196.358643 
	C1703.608521,3183.737549 1704.132690,3171.031738 1703.310425,3158.413086 
	C1701.975098,3137.919678 1699.751099,3117.484619 1698.400391,3096.991943 
	C1696.652832,3070.477295 1695.531860,3043.921631 1693.870483,3017.400635 
	C1692.979858,3003.184570 1691.338257,2989.017090 1690.361816,2974.805176 
	C1688.609741,2949.303223 1687.124268,2923.782959 1685.488892,2898.272705 
	C1683.788696,2871.752930 1681.921509,2845.242676 1680.357666,2818.714844 
	C1679.203369,2799.134521 1678.676758,2779.515137 1677.401001,2759.943848 
	C1675.978271,2738.117920 1673.839111,2716.339111 1672.359863,2694.516113 
	C1671.145508,2676.601318 1670.696167,2658.634277 1669.442993,2640.722656 
	C1668.009399,2620.229004 1665.937988,2599.781006 1664.371704,2579.295410 
	C1662.676636,2557.127686 1661.204468,2534.942383 1659.711060,2512.759521 
	C1658.528198,2495.192139 1656.898071,2477.630371 1656.480835,2460.041748 
	C1655.946411,2437.508545 1655.069458,2415.098633 1652.699097,2392.611328 
	C1649.292480,2360.293701 1648.235962,2327.727539 1646.223877,2295.264160 
	C1645.873779,2289.616943 1645.920410,2283.943359 1645.506592,2278.302246 
	C1643.612793,2252.488281 1641.480103,2226.690918 1639.706177,2200.869141 
	C1638.226074,2179.322021 1637.115723,2157.749756 1635.858398,2136.187500 
	C1634.622681,2114.992920 1633.347412,2093.800293 1632.203125,2072.600830 
	C1631.253174,2055.003418 1630.774658,2037.375610 1629.529541,2019.800903 
	C1628.124878,1999.973022 1625.813965,1980.209351 1624.402954,1960.381714 
	C1622.048340,1927.296753 1620.215088,1894.174927 1617.934814,1861.084229 
	C1616.269775,1836.920654 1614.026855,1812.796387 1612.426147,1788.629028 
	C1610.496460,1759.494873 1610.328735,1730.273315 1607.754761,1701.153564 
	C1605.882935,1679.976929 1605.409912,1658.680664 1603.961304,1637.461670 
	C1602.289673,1612.975952 1600.053711,1588.528564 1598.389160,1564.042358 
	C1596.589600,1537.569824 1595.370728,1511.057495 1593.527588,1484.588257 
	C1591.338989,1453.157349 1588.171387,1421.784912 1586.515259,1390.329834 
	C1585.013428,1361.805786 1584.714722,1333.207642 1584.402466,1304.636597 
	C1584.261353,1291.725342 1586.215454,1278.769165 1585.736328,1265.888550 
	C1584.829224,1241.504150 1586.482910,1217.386963 1591.341797,1193.548828 
	C1595.174438,1174.744873 1599.375610,1155.983032 1604.367188,1137.459595 
	C1607.897339,1124.359009 1612.511597,1111.481567 1617.605225,1098.894287 
	C1621.319824,1089.714722 1626.927856,1081.320923 1631.118408,1072.310181 
	C1638.480713,1056.478516 1649.543335,1043.148560 1660.859253,1030.357300 
	C1673.068481,1016.556396 1686.643066,1003.927673 1702.014771,993.267700 
	C1723.241577,978.547241 1745.788818,966.617493 1770.653442,959.890137 
	C1811.225098,948.913025 1848.379639,958.480164 1882.356812,981.647095 
	C1901.074219,994.409424 1916.755615,1010.713501 1930.862061,1028.375854 
	C1944.308716,1045.212036 1956.479248,1062.960205 1966.536621,1082.086426 
	C1973.187134,1094.733765 1980.810547,1106.951050 1986.458374,1120.026245 
	C1995.779053,1141.604614 2004.579834,1163.469849 2012.264526,1185.676270 
	C2021.150757,1211.354736 2030.147827,1237.064087 2035.300415,1263.896118 
	C2038.551270,1280.824463 2043.400513,1297.501953 2045.734009,1314.538452 
	C2050.323486,1348.047729 2053.736572,1381.720215 2057.490479,1415.341431 
	C2060.581787,1443.027710 2063.455322,1470.738403 2066.441406,1498.436401 
	C2067.260010,1506.029297 2068.080811,1513.622559 2068.996582,1521.204102 
	C2072.097168,1546.869995 2075.368896,1572.516113 2078.325195,1598.198486 
	C2080.521240,1617.276123 2082.285889,1636.403198 2084.319580,1655.500000 
	C2087.551758,1685.846069 2090.788330,1716.191895 2094.142334,1746.524658 
	C2095.853271,1761.997192 2098.065186,1777.416992 2099.614746,1792.904175 
	C2101.428467,1811.033325 2102.573242,1829.229126 2104.368164,1847.360352 
	C2106.127686,1865.136108 2108.395996,1882.860718 2110.338135,1900.619141 
	C2112.824219,1923.352661 2115.330811,1946.085327 2117.600342,1968.841064 
	C2119.972412,1992.623657 2122.254883,2016.418091 2124.244873,2040.235107 
	C2126.398682,2066.016357 2128.120850,2091.833252 2130.120117,2117.627930 
	C2132.659912,2150.401611 2135.207275,2183.174805 2137.907715,2215.935547 
	C2139.678711,2237.423828 2141.896484,2258.875488 2143.589355,2280.369141 
	C2144.711182,2294.611816 2145.136230,2308.907959 2146.092041,2323.165527 
	C2147.422607,2343.005859 2149.087402,2362.823975 2150.351562,2382.668213 
	C2151.005615,2392.933350 2150.821289,2403.252441 2151.512451,2413.513916 
	C2152.938232,2434.677490 2154.814941,2455.810547 2156.283203,2476.971680 
	C2157.570801,2495.533936 2158.560303,2514.116455 2159.669434,2532.690918 
	C2161.110596,2556.834961 2162.586426,2580.976562 2163.943848,2605.125244 
	C2164.298584,2611.439697 2164.031250,2617.792236 2164.460693,2624.099121 
	C2166.104980,2648.247070 2168.045166,2672.375244 2169.616455,2696.527588 
	C2170.544434,2710.791260 2171.054688,2725.083984 2171.634521,2739.368164 
	C2172.983154,2772.604248 2174.297363,2805.841553 2175.556885,2839.081299 
	C2176.966797,2876.289062 2178.248535,2913.501465 2179.684326,2950.708252 
	C2180.938965,2983.222656 2182.484131,3015.726807 2183.611816,3048.245361 
	C2184.522705,3074.517090 2185.104980,3100.801758 2185.639404,3127.084717 
	C2186.052490,3147.401123 2186.183594,3167.723145 2186.400879,3188.043457 
	C2186.457764,3193.375244 2186.146973,3198.718506 2186.386719,3204.039551 
	C2187.402344,3226.584717 2188.851807,3249.113770 2189.582031,3271.666992 
	C2190.217529,3291.308838 2190.109375,3310.975098 2190.314941,3330.630615 
	C2190.781006,3375.254639 2191.238037,3419.878906 2191.696777,3464.502930 
	C2191.714111,3466.169678 2191.695068,3467.836426 2191.723389,3469.502930 
	C2191.746094,3470.834961 2191.665039,3472.192627 2191.890137,3473.493896 
	C2192.805420,3478.785400 2195.627441,3480.732666 2201.032227,3479.898193 
	C2204.300293,3479.393555 2207.554443,3478.464600 2210.829346,3478.395264 
	C2227.811279,3478.036133 2244.798340,3477.685791 2261.782959,3477.718994 
	C2291.439453,3477.777100 2321.095703,3478.116455 2350.751953,3478.341797 
	C2352.418213,3478.354492 2354.086914,3478.351318 2355.749512,3478.445068 
	C2376.584961,3479.620117 2397.406006,3481.361084 2418.257324,3481.861572 
	C2445.193604,3482.507568 2472.155762,3482.011719 2499.103516,3482.295898 
	C2522.065918,3482.537842 2545.024414,3483.173584 2567.983887,3483.671143 
	C2572.308350,3483.764893 2576.628906,3484.034180 2580.951660,3484.208984 
	C2609.148682,3485.349609 2637.341553,3486.616943 2665.544189,3487.585938 
	C2690.145996,3488.431152 2714.759521,3488.924561 2739.367188,3489.598145 
	C2785.566162,3490.862793 2831.762939,3492.210693 2877.964355,3493.378906 
	C2891.289795,3493.716064 2904.627686,3493.616211 2917.959961,3493.611084 
	C2932.035645,3493.605469 2932.452637,3493.278809 2932.296387,3478.849121 
	C2931.690186,3422.912109 2931.144287,3366.973877 2930.229248,3311.041504 
	C2929.799316,3284.762939 2928.781250,3258.488525 2927.648682,3232.228516 
	C2926.891113,3214.667969 2925.304932,3197.144531 2924.369385,3179.589600 
	C2922.741211,3149.044922 2921.511963,3118.478027 2919.753418,3087.941162 
	C2918.800537,3071.394043 2916.957031,3054.900146 2915.780273,3038.363525 
	C2914.836426,3025.100586 2914.609619,3011.781982 2913.490967,2998.536865 
	C2912.070312,2981.720459 2909.811035,2964.975342 2908.383789,2948.159668 
	C2906.504639,2926.024658 2905.380859,2903.823975 2903.379639,2881.701660 
	C2901.380127,2859.601807 2898.705322,2837.563232 2896.315674,2815.498779 
	C2893.782227,2792.104004 2891.246094,2768.709717 2888.692139,2745.317139 
	C2887.255127,2732.159424 2885.662109,2719.017822 2884.356201,2705.847656 
	C2883.013184,2692.305176 2882.291016,2678.693604 2880.656250,2665.189697 
	C2878.150879,2644.499268 2874.998535,2623.887939 2872.303711,2603.219238 
	C2869.946289,2585.137939 2867.887939,2567.017334 2865.615234,2548.924561 
	C2861.192871,2513.718262 2856.880371,2478.496826 2852.207275,2443.323486 
	C2848.103027,2412.432861 2843.479248,2381.612061 2839.261963,2350.736084 
	C2837.155762,2335.315674 2835.676514,2319.808594 2833.507080,2304.397949 
	C2828.978027,2272.220947 2824.132812,2240.088623 2819.503418,2207.925537 
	C2815.017090,2176.756348 2810.663574,2145.568359 2806.204590,2114.395020 
	C2803.151367,2093.049316 2799.965820,2071.722168 2796.931885,2050.373535 
	C2793.156738,2023.811157 2789.541992,1997.225830 2785.735352,1970.667847 
	C2782.677002,1949.331177 2779.523438,1928.007446 2776.252197,1906.702393 
	C2773.087158,1886.090454 2769.509521,1865.540161 2766.511963,1844.904907 
	C2764.512207,1831.137573 2763.521729,1817.223999 2761.533447,1803.454712 
	C2757.316406,1774.248413 2752.498535,1745.128052 2748.377930,1715.908813 
	C2743.465820,1681.078613 2739.063232,1646.177002 2734.366943,1611.316162 
	C2731.933594,1593.254761 2729.414062,1575.204224 2726.804443,1557.167358 
	C2722.483643,1527.305054 2718.202881,1497.435791 2713.625000,1467.612427 
	C2710.810303,1449.273804 2707.645996,1430.983765 2704.315674,1412.730835 
	C2701.815430,1399.028198 2698.584229,1385.459106 2696.066895,1371.759033 
	C2692.592773,1352.850952 2689.783936,1333.817627 2686.126221,1314.947266 
	C2683.096924,1299.316772 2679.182617,1283.859375 2675.782471,1268.298706 
	C2670.471191,1243.991699 2665.424072,1219.625977 2659.956299,1195.354614 
	C2656.024658,1177.902344 2651.596191,1160.561768 2647.371338,1143.175781 
	C2646.902100,1141.244141 2646.342041,1139.333252 2645.776367,1137.426758 
	C2642.475342,1126.302856 2639.201172,1115.170532 2635.842041,1104.064209 
	C2627.679932,1077.080811 2619.546387,1050.088501 2611.250488,1023.146240 
	C2608.516357,1014.267517 2605.402832,1005.502014 2602.317627,996.735779 
	C2594.838867,975.485413 2587.274658,954.265137 2578.881592,931.724060 
z"/>
<path fill="#05A89D" opacity="1.000000" stroke="none" 
	d="
M2579.313232,932.378418 
	C2587.274658,954.265137 2594.838867,975.485413 2602.317627,996.735779 
	C2605.402832,1005.502014 2608.516357,1014.267517 2611.250488,1023.146240 
	C2619.546387,1050.088501 2627.679932,1077.080811 2635.842041,1104.064209 
	C2639.201172,1115.170532 2642.475342,1126.302856 2645.776367,1137.426758 
	C2646.342041,1139.333252 2646.902100,1141.244141 2647.371338,1143.175781 
	C2651.596191,1160.561768 2656.024658,1177.902344 2659.956299,1195.354614 
	C2665.424072,1219.625977 2670.471191,1243.991699 2675.782471,1268.298706 
	C2679.182617,1283.859375 2683.096924,1299.316772 2686.126221,1314.947266 
	C2689.783936,1333.817627 2692.592773,1352.850952 2696.066895,1371.759033 
	C2698.584229,1385.459106 2701.815430,1399.028198 2704.315674,1412.730835 
	C2707.645996,1430.983765 2710.810303,1449.273804 2713.625000,1467.612427 
	C2718.202881,1497.435791 2722.483643,1527.305054 2726.804443,1557.167358 
	C2729.414062,1575.204224 2731.933594,1593.254761 2734.366943,1611.316162 
	C2739.063232,1646.177002 2743.465820,1681.078613 2748.377930,1715.908813 
	C2752.498535,1745.128052 2757.316406,1774.248413 2761.533447,1803.454712 
	C2763.521729,1817.223999 2764.512207,1831.137573 2766.511963,1844.904907 
	C2769.509521,1865.540161 2773.087158,1886.090454 2776.252197,1906.702393 
	C2779.523438,1928.007446 2782.677002,1949.331177 2785.735352,1970.667847 
	C2789.541992,1997.225830 2793.156738,2023.811157 2796.931885,2050.373535 
	C2799.965820,2071.722168 2803.151367,2093.049316 2806.204590,2114.395020 
	C2810.663574,2145.568359 2815.017090,2176.756348 2819.503418,2207.925537 
	C2824.132812,2240.088623 2828.978027,2272.220947 2833.507080,2304.397949 
	C2835.676514,2319.808594 2837.155762,2335.315674 2839.261963,2350.736084 
	C2843.479248,2381.612061 2848.103027,2412.432861 2852.207275,2443.323486 
	C2856.880371,2478.496826 2861.192871,2513.718262 2865.615234,2548.924561 
	C2867.887939,2567.017334 2869.946289,2585.137939 2872.303711,2603.219238 
	C2874.998535,2623.887939 2878.150879,2644.499268 2880.656250,2665.189697 
	C2882.291016,2678.693604 2883.013184,2692.305176 2884.356201,2705.847656 
	C2885.662109,2719.017822 2887.255127,2732.159424 2888.692139,2745.317139 
	C2891.246094,2768.709717 2893.782227,2792.104004 2896.315674,2815.498779 
	C2898.705322,2837.563232 2901.380127,2859.601807 2903.379639,2881.701660 
	C2905.380859,2903.823975 2906.504639,2926.024658 2908.383789,2948.159668 
	C2909.811035,2964.975342 2912.070312,2981.720459 2913.490967,2998.536865 
	C2914.609619,3011.781982 2914.836426,3025.100586 2915.780273,3038.363525 
	C2916.957031,3054.900146 2918.800537,3071.394043 2919.753418,3087.941162 
	C2921.511963,3118.478027 2922.741211,3149.044922 2924.369385,3179.589600 
	C2925.304932,3197.144531 2926.891113,3214.667969 2927.648682,3232.228516 
	C2928.781250,3258.488525 2929.799316,3284.762939 2930.229248,3311.041504 
	C2931.144287,3366.973877 2931.690186,3422.912109 2932.296387,3478.849121 
	C2932.452637,3493.278809 2932.035645,3493.605469 2917.959961,3493.611084 
	C2904.627686,3493.616211 2891.289795,3493.716064 2877.964355,3493.378906 
	C2831.762939,3492.210693 2785.566162,3490.862793 2739.367188,3489.598145 
	C2714.759521,3488.924561 2690.145996,3488.431152 2665.544189,3487.585938 
	C2637.341553,3486.616943 2609.148682,3485.349609 2580.951660,3484.208984 
	C2576.628906,3484.034180 2572.308350,3483.764893 2567.983887,3483.671143 
	C2545.024414,3483.173584 2522.065918,3482.537842 2499.103516,3482.295898 
	C2472.155762,3482.011719 2445.193604,3482.507568 2418.257324,3481.861572 
	C2397.406006,3481.361084 2376.584961,3479.620117 2355.749512,3478.445068 
	C2354.086914,3478.351318 2352.418213,3478.354492 2350.751953,3478.341797 
	C2321.095703,3478.116455 2291.439453,3477.777100 2261.782959,3477.718994 
	C2244.798340,3477.685791 2227.811279,3478.036133 2210.829346,3478.395264 
	C2207.554443,3478.464600 2204.300293,3479.393555 2201.032227,3479.898193 
	C2195.627441,3480.732666 2192.805420,3478.785400 2191.890137,3473.493896 
	C2191.665039,3472.192627 2191.746094,3470.834961 2191.723389,3469.502930 
	C2191.695068,3467.836426 2191.714111,3466.169678 2191.696777,3464.502930 
	C2191.238037,3419.878906 2190.781006,3375.254639 2190.314941,3330.630615 
	C2190.109375,3310.975098 2190.217529,3291.308838 2189.582031,3271.666992 
	C2188.851807,3249.113770 2187.402344,3226.584717 2186.386719,3204.039551 
	C2186.146973,3198.718506 2186.457764,3193.375244 2186.400879,3188.043457 
	C2186.183594,3167.723145 2186.052490,3147.401123 2185.639404,3127.084717 
	C2185.104980,3100.801758 2184.522705,3074.517090 2183.611816,3048.245361 
	C2182.484131,3015.726807 2180.938965,2983.222656 2179.684326,2950.708252 
	C2178.248535,2913.501465 2176.966797,2876.289062 2175.556885,2839.081299 
	C2174.297363,2805.841553 2172.983154,2772.604248 2171.634521,2739.368164 
	C2171.054688,2725.083984 2170.544434,2710.791260 2169.616455,2696.527588 
	C2168.045166,2672.375244 2166.104980,2648.247070 2164.460693,2624.099121 
	C2164.031250,2617.792236 2164.298584,2611.439697 2163.943848,2605.125244 
	C2162.586426,2580.976562 2161.110596,2556.834961 2159.669434,2532.690918 
	C2158.560303,2514.116455 2157.570801,2495.533936 2156.283203,2476.971680 
	C2154.814941,2455.810547 2152.938232,2434.677490 2151.512451,2413.513916 
	C2150.821289,2403.252441 2151.005615,2392.933350 2150.351562,2382.668213 
	C2149.087402,2362.823975 2147.422607,2343.005859 2146.092041,2323.165527 
	C2145.136230,2308.907959 2144.711182,2294.611816 2143.589355,2280.369141 
	C2141.896484,2258.875488 2139.678711,2237.423828 2137.907715,2215.935547 
	C2135.207275,2183.174805 2132.659912,2150.401611 2130.120117,2117.627930 
	C2128.120850,2091.833252 2126.398682,2066.016357 2124.244873,2040.235107 
	C2122.254883,2016.418091 2119.972412,1992.623657 2117.600342,1968.841064 
	C2115.330811,1946.085327 2112.824219,1923.352661 2110.338135,1900.619141 
	C2108.395996,1882.860718 2106.127686,1865.136108 2104.368164,1847.360352 
	C2102.573242,1829.229126 2101.428467,1811.033325 2099.614746,1792.904175 
	C2098.065186,1777.416992 2095.853271,1761.997192 2094.142334,1746.524658 
	C2090.788330,1716.191895 2087.551758,1685.846069 2084.319580,1655.500000 
	C2082.285889,1636.403198 2080.521240,1617.276123 2078.325195,1598.198486 
	C2075.368896,1572.516113 2072.097168,1546.869995 2068.996582,1521.204102 
	C2068.080811,1513.622559 2067.260010,1506.029297 2066.441406,1498.436401 
	C2063.455322,1470.738403 2060.581787,1443.027710 2057.490479,1415.341431 
	C2053.736572,1381.720215 2050.323486,1348.047729 2045.734009,1314.538452 
	C2043.400513,1297.501953 2038.551270,1280.824463 2035.300415,1263.896118 
	C2030.147827,1237.064087 2021.150757,1211.354736 2012.264526,1185.676270 
	C2004.579834,1163.469849 1995.779053,1141.604614 1986.458374,1120.026245 
	C1980.810547,1106.951050 1973.187134,1094.733765 1966.536621,1082.086426 
	C1956.479248,1062.960205 1944.308716,1045.212036 1930.862061,1028.375854 
	C1916.755615,1010.713501 1901.074219,994.409424 1882.356812,981.647095 
	C1848.379639,958.480164 1811.225098,948.913025 1770.653442,959.890137 
	C1745.788818,966.617493 1723.241577,978.547241 1702.014771,993.267700 
	C1686.643066,1003.927673 1673.068481,1016.556396 1660.859253,1030.357300 
	C1649.543335,1043.148560 1638.480713,1056.478516 1631.118408,1072.310181 
	C1626.927856,1081.320923 1621.319824,1089.714722 1617.605225,1098.894287 
	C1612.511597,1111.481567 1607.897339,1124.359009 1604.367188,1137.459595 
	C1599.375610,1155.983032 1595.174438,1174.744873 1591.341797,1193.548828 
	C1586.482910,1217.386963 1584.829224,1241.504150 1585.736328,1265.888550 
	C1586.215454,1278.769165 1584.261353,1291.725342 1584.402466,1304.636597 
	C1584.714722,1333.207642 1585.013428,1361.805786 1586.515259,1390.329834 
	C1588.171387,1421.784912 1591.338989,1453.157349 1593.527588,1484.588257 
	C1595.370728,1511.057495 1596.589600,1537.569824 1598.389160,1564.042358 
	C1600.053711,1588.528564 1602.289673,1612.975952 1603.961304,1637.461670 
	C1605.409912,1658.680664 1605.882935,1679.976929 1607.754761,1701.153564 
	C1610.328735,1730.273315 1610.496460,1759.494873 1612.426147,1788.629028 
	C1614.026855,1812.796387 1616.269775,1836.920654 1617.934814,1861.084229 
	C1620.215088,1894.174927 1622.048340,1927.296753 1624.402954,1960.381714 
	C1625.813965,1980.209351 1628.124878,1999.973022 1629.529541,2019.800903 
	C1630.774658,2037.375610 1631.253174,2055.003418 1632.203125,2072.600830 
	C1633.347412,2093.800293 1634.622681,2114.992920 1635.858398,2136.187500 
	C1637.115723,2157.749756 1638.226074,2179.322021 1639.706177,2200.869141 
	C1641.480103,2226.690918 1643.612793,2252.488281 1645.506592,2278.302246 
	C1645.920410,2283.943359 1645.873779,2289.616943 1646.223877,2295.264160 
	C1648.235962,2327.727539 1649.292480,2360.293701 1652.699097,2392.611328 
	C1655.069458,2415.098633 1655.946411,2437.508545 1656.480835,2460.041748 
	C1656.898071,2477.630371 1658.528198,2495.192139 1659.711060,2512.759521 
	C1661.204468,2534.942383 1662.676636,2557.127686 1664.371704,2579.295410 
	C1665.937988,2599.781006 1668.009399,2620.229004 1669.442993,2640.722656 
	C1670.696167,2658.634277 1671.145508,2676.601318 1672.359863,2694.516113 
	C1673.839111,2716.339111 1675.978271,2738.117920 1677.401001,2759.943848 
	C1678.676758,2779.515137 1679.203369,2799.134521 1680.357666,2818.714844 
	C1681.921509,2845.242676 1683.788696,2871.752930 1685.488892,2898.272705 
	C1687.124268,2923.782959 1688.609741,2949.303223 1690.361816,2974.805176 
	C1691.338257,2989.017090 1692.979858,3003.184570 1693.870483,3017.400635 
	C1695.531860,3043.921631 1696.652832,3070.477295 1698.400391,3096.991943 
	C1699.751099,3117.484619 1701.975098,3137.919678 1703.310425,3158.413086 
	C1704.132690,3171.031738 1703.608521,3183.737549 1704.409424,3196.358643 
	C1705.752441,3217.518799 1707.765991,3238.635010 1709.311768,3259.783691 
	C1710.256836,3272.711182 1710.791504,3285.668701 1711.623047,3298.605225 
	C1712.963745,3319.465088 1714.412842,3340.317871 1715.787964,3361.175537 
	C1717.992310,3394.607422 1720.159180,3428.041992 1722.377075,3461.473145 
	C1722.836182,3468.393311 1723.449585,3475.303467 1724.085693,3483.415283 
	C1717.438110,3484.924561 1711.550171,3486.852783 1705.521851,3487.528320 
	C1678.818115,3490.520020 1652.088501,3493.303467 1625.338379,3495.847656 
	C1612.773926,3497.042725 1600.132690,3497.404053 1587.542603,3498.359375 
	C1566.053101,3499.989990 1544.583496,3501.887207 1523.090454,3503.465820 
	C1515.790894,3504.001709 1508.446777,3504.016357 1501.121216,3504.095703 
	C1447.513184,3504.676025 1393.905151,3505.285400 1340.295654,3505.658691 
	C1334.366089,3505.699951 1328.432495,3504.261230 1322.490723,3503.599121 
	C1304.191162,3501.559082 1287.724121,3481.107422 1283.925903,3463.614258 
	C1280.222412,3446.556885 1279.698242,3429.415527 1279.714966,3412.143066 
	C1279.736206,3390.144775 1280.773804,3368.084717 1279.499146,3346.160645 
	C1276.731689,3298.562012 1279.379395,3250.969482 1278.355469,3203.387451 
	C1277.989868,3186.401611 1277.972656,3169.408447 1277.642212,3152.421631 
	C1277.299194,3134.793457 1276.841309,3117.166992 1276.304565,3099.543701 
	C1275.485474,3072.643311 1274.485962,3045.748047 1273.692627,3018.847168 
	C1272.927490,2992.902344 1272.365479,2966.951904 1271.641113,2941.005615 
	C1271.037720,2919.390137 1270.507812,2897.770020 1269.616699,2876.165283 
	C1268.715210,2854.311523 1267.312012,2832.478760 1266.309204,2810.628662 
	C1265.317993,2789.030762 1264.643188,2767.418457 1263.664917,2745.819824 
	C1262.538208,2720.946045 1261.138550,2696.084961 1260.030884,2671.210449 
	C1259.113770,2650.612305 1258.677002,2629.990967 1257.599243,2609.402588 
	C1256.749878,2593.179199 1254.956543,2577.004883 1254.132935,2560.780762 
	C1253.526001,2548.822754 1254.090698,2536.809082 1253.632568,2524.839111 
	C1252.704590,2500.592285 1252.271973,2476.282227 1250.079102,2452.139893 
	C1247.797729,2427.024170 1247.057617,2401.868164 1245.571533,2376.732666 
	C1244.280640,2354.899414 1241.998901,2333.125732 1240.518433,2311.301270 
	C1239.415771,2295.047607 1239.082397,2278.742188 1238.061523,2262.481689 
	C1236.937500,2244.577148 1235.185547,2226.710938 1234.137207,2208.802979 
	C1233.050293,2190.234619 1232.714966,2171.622314 1231.602661,2153.055908 
	C1230.791016,2139.508545 1229.064941,2126.018311 1228.082886,2112.478027 
	C1226.664551,2092.925293 1225.775757,2073.332520 1224.245972,2053.789551 
	C1222.615234,2032.956421 1220.399170,2012.169922 1218.627930,1991.346924 
	C1216.858032,1970.537598 1215.479248,1949.694214 1213.635376,1928.891846 
	C1212.088135,1911.435303 1210.028076,1894.024780 1208.385376,1876.575806 
	C1207.826294,1870.636963 1207.936523,1864.638428 1207.585938,1858.676147 
	C1206.532959,1840.773682 1205.658813,1822.855225 1204.242432,1804.980591 
	C1202.277100,1780.178345 1199.935059,1755.405151 1197.655273,1730.628662 
	C1195.711792,1709.508179 1194.443604,1688.282349 1191.402832,1667.316895 
	C1187.538574,1640.673706 1186.384766,1613.869751 1184.169312,1587.117065 
	C1182.065430,1561.711304 1178.479004,1536.431396 1175.784790,1511.070557 
	C1172.245483,1477.755249 1169.044922,1444.403931 1165.491821,1411.090088 
	C1163.804321,1395.267822 1162.055176,1379.430908 1159.581177,1363.719116 
	C1156.538818,1344.397705 1152.940918,1325.154663 1149.163818,1305.960083 
	C1144.359131,1281.543213 1139.742554,1257.061890 1133.894287,1232.886597 
	C1129.378174,1214.218018 1123.056763,1195.988037 1117.598633,1177.545166 
	C1110.707886,1154.261475 1101.162720,1132.104004 1090.968750,1110.064941 
	C1079.618042,1085.524658 1065.613281,1063.069336 1048.079346,1042.536255 
	C1035.051758,1027.280273 1019.334229,1015.594238 1001.375916,1007.614502 
	C982.922791,999.414795 963.071289,997.265747 942.899414,1001.060669 
	C938.994385,1001.795349 935.044861,1002.294006 931.115540,1002.899292 
	C916.415710,1005.163757 903.252686,1011.737793 890.591003,1018.835632 
	C876.761597,1026.588013 863.664734,1035.697754 850.537659,1044.640381 
	C831.347961,1057.712891 816.586670,1075.142944 803.385010,1093.998535 
	C784.013977,1121.665283 770.392456,1152.246094 758.294861,1183.562012 
	C751.708679,1200.610962 745.117249,1217.683105 739.370972,1235.024170 
	C733.631592,1252.344604 728.872803,1269.993042 723.819763,1287.536865 
	C720.330933,1299.649658 716.930603,1311.792114 713.785706,1323.997437 
	C712.634521,1328.465210 712.587097,1333.207642 711.598389,1337.729004 
	C708.198425,1353.277710 704.556030,1368.773193 701.117554,1384.313721 
	C700.187805,1388.515869 699.744873,1392.823486 698.921326,1397.052002 
	C691.292480,1436.222778 686.473328,1475.745117 683.538208,1515.534912 
	C681.439941,1543.980469 678.448547,1572.361938 676.499634,1600.816162 
	C675.025452,1622.339966 674.031494,1643.926636 673.762024,1665.497192 
	C673.021301,1724.786255 672.449585,1784.081299 672.427002,1843.374268 
	C672.406250,1898.000610 673.611206,1952.628174 673.492859,2007.253418 
	C673.373779,2062.200439 672.340576,2117.145752 671.597961,2172.090332 
	C671.350708,2190.384521 670.283142,2208.677246 670.421814,2226.964355 
	C670.841003,2282.240234 671.562195,2337.514160 672.381104,2392.785889 
	C672.790283,2420.404785 673.440186,2448.024658 674.403809,2475.629150 
	C675.237183,2499.501465 676.789368,2523.347412 677.800049,2547.214600 
	C678.785156,2570.477051 679.298584,2593.760742 680.381165,2617.018066 
	C681.058472,2631.570312 682.425598,2646.090088 683.432922,2660.627930 
	C683.616577,2663.278809 683.527588,2665.947510 683.615967,2668.606201 
	C684.522034,2695.876465 685.281860,2723.153076 686.396423,2750.415039 
	C687.522339,2777.956299 688.970459,2805.485107 690.338562,2833.016113 
	C691.410706,2854.590576 692.500366,2876.164795 693.719360,2897.731201 
	C695.181030,2923.592041 696.827271,2949.442383 698.315979,2975.301514 
	C699.080139,2988.576172 699.580261,3001.866211 700.365784,3015.139404 
	C702.305969,3047.923340 704.229980,3080.708740 706.372986,3113.479736 
	C708.302185,3142.982422 710.579346,3172.462646 712.536438,3201.963623 
	C712.865540,3206.925781 712.019043,3211.961426 712.281433,3216.933350 
	C713.383057,3237.804932 714.810791,3258.659180 715.903870,3279.531250 
	C716.860168,3297.792236 717.320068,3316.080566 718.395020,3334.333496 
	C719.154175,3347.224121 720.629211,3360.071777 721.659119,3372.948486 
	C721.896118,3375.911377 721.471069,3378.921875 721.602905,3381.899170 
	C722.412292,3400.174805 723.443726,3418.442139 724.099609,3436.723145 
	C724.540588,3449.012207 724.565796,3461.168213 718.858337,3472.794678 
	C714.369324,3481.938965 707.270081,3487.133301 698.052063,3489.871338 
	C686.851013,3493.198486 675.271362,3494.097900 663.623352,3494.261475 
	C616.343933,3494.925293 569.064880,3496.115967 521.785583,3496.124512 
	C489.515625,3496.130371 457.222473,3494.982422 424.982422,3493.450439 
	C398.480865,3492.191162 372.023468,3489.826416 345.581299,3487.547363 
	C321.152496,3485.441895 296.714294,3483.254883 272.381134,3480.279053 
	C242.113770,3476.577148 211.864151,3472.552979 181.776291,3467.632324 
	C165.816666,3465.021973 149.669998,3461.688477 134.572800,3456.082764 
	C107.760986,3446.127441 92.125710,3427.599365 89.824005,3398.436523 
	C88.362282,3379.916748 87.936638,3361.288330 87.723511,3342.701172 
	C86.891006,3270.094482 86.331650,3197.484375 85.664391,3124.875732 
	C85.003166,3052.924805 84.369804,2980.973633 83.653877,2909.023193 
	C83.292747,2872.729736 83.728394,2836.395996 82.127998,2800.154297 
	C78.953857,2728.274902 80.362427,2656.375977 79.660408,2584.487793 
	C79.296310,2547.203369 78.761284,2509.920898 78.320084,2472.637451 
	C78.095398,2453.650635 77.880455,2434.663574 77.707993,2415.676270 
	C77.230019,2363.054688 76.751724,2310.433594 76.322716,2257.811768 
	C76.056534,2225.161377 76.109184,2192.506592 75.595161,2159.860596 
	C75.129189,2130.267334 73.468468,2100.683594 73.416405,2071.093994 
	C73.244568,1973.432983 73.337868,1875.769897 73.808159,1778.109985 
	C73.985901,1741.200562 75.191162,1704.287720 76.456665,1667.394653 
	C77.276756,1643.486694 78.647949,1619.579956 80.514618,1595.730713 
	C82.453957,1570.952881 84.943512,1546.205078 87.829041,1521.518433 
	C90.558975,1498.163208 94.089989,1474.901123 97.315247,1451.604492 
	C100.133591,1431.246948 102.438759,1410.795654 106.025681,1390.572998 
	C110.016830,1368.071533 115.214035,1345.784424 119.853165,1323.397095 
	C120.585052,1319.865112 120.965538,1316.254272 121.811035,1312.752930 
	C125.629112,1296.941528 129.473099,1281.135498 133.468597,1265.368286 
	C136.972061,1251.543091 140.488510,1237.715210 144.363739,1223.991577 
	C149.134003,1207.098022 154.181915,1190.280762 159.307800,1173.490967 
	C162.017303,1164.616211 165.503723,1155.970459 168.024643,1147.047607 
	C178.599075,1109.619263 192.412994,1073.325317 206.058716,1036.963745 
	C211.655731,1022.049377 216.806778,1006.967102 222.448807,992.070312 
	C226.679596,980.899658 231.327484,969.885498 235.868256,958.833984 
	C241.655701,944.748108 247.535599,930.700256 253.351334,916.626038 
	C260.450073,899.446777 267.134918,882.083801 274.699677,865.112793 
	C285.905609,839.973145 297.541138,815.019653 309.345459,790.153870 
	C319.162323,769.474731 329.089142,748.828552 339.703033,728.552856 
	C349.243774,710.327148 359.430664,692.413635 369.975983,674.746521 
	C382.891846,653.107849 396.081390,631.609314 409.894958,610.536804 
	C421.544891,592.765076 434.065125,575.550354 446.555084,558.346741 
	C457.079376,543.850586 467.600952,529.298584 479.039764,515.532471 
	C497.441589,493.386688 516.134705,471.443512 535.579895,450.216370 
	C551.687988,432.632141 568.432068,415.519165 586.026001,399.435211 
	C608.997437,378.435242 632.830688,358.349823 656.785645,338.464142 
	C671.570862,326.190460 686.949585,314.562836 702.652527,303.482269 
	C719.121887,291.860901 736.283813,281.219391 753.169312,270.189850 
	C761.783813,264.562897 770.174438,258.515076 779.158264,253.547302 
	C800.364075,241.821136 822.045349,230.951584 843.200378,219.137527 
	C869.617432,204.384857 897.578430,193.063629 925.423035,181.549057 
	C957.620056,168.234634 990.441467,156.523087 1023.918152,146.744598 
	C1042.699585,141.258545 1061.382202,135.411163 1080.268921,130.318054 
	C1091.740601,127.224556 1103.508057,125.217812 1115.157593,122.795204 
	C1142.734009,117.060493 1170.267944,111.099365 1197.927979,105.798950 
	C1208.310669,103.809341 1219.004395,103.473595 1229.540405,102.246689 
	C1251.940063,99.638290 1274.303101,96.687958 1296.731079,94.357147 
	C1315.189575,92.438866 1333.726807,91.290298 1352.215820,89.649429 
	C1363.742920,88.626434 1375.228516,87.107338 1386.764526,86.227730 
	C1393.377197,85.723541 1400.053345,86.003265 1406.700806,86.016335 
	C1431.681152,86.065430 1456.664185,85.960487 1481.640381,86.320160 
	C1490.849487,86.452774 1500.043701,87.694817 1509.242065,88.461731 
	C1521.810913,89.509659 1534.395996,90.404922 1546.940430,91.693207 
	C1567.388306,93.793137 1587.896484,95.563721 1608.218994,98.560081 
	C1634.099365,102.375916 1659.947388,106.652832 1685.570068,111.899231 
	C1706.648438,116.215096 1727.224487,122.990578 1748.308472,127.270523 
	C1766.576172,130.978790 1784.254883,136.397995 1801.810547,142.308472 
	C1824.728638,150.024338 1847.610718,157.916061 1870.169434,166.611435 
	C1892.758667,175.318604 1915.345459,184.237061 1937.185669,194.633652 
	C1967.695923,209.157440 1997.876465,224.474457 2027.504639,240.716965 
	C2049.256348,252.641464 2070.188477,266.149475 2090.936279,279.787842 
	C2107.497314,290.673737 2123.656738,302.277313 2139.231934,314.531433 
	C2164.526367,334.432343 2189.830811,354.408783 2213.935547,375.706299 
	C2234.069580,393.495361 2252.598389,413.115173 2271.628418,432.133881 
	C2282.429688,442.928497 2293.181396,453.816010 2303.292480,465.247986 
	C2318.458008,482.394470 2333.233643,499.896851 2347.810791,517.548889 
	C2359.628174,531.859131 2371.308105,546.318054 2382.321777,561.247620 
	C2394.714355,578.045715 2406.624756,595.224976 2418.133789,612.642212 
	C2430.930420,632.007324 2443.411377,651.603333 2455.362061,671.499817 
	C2475.536865,705.088989 2494.819336,739.205994 2511.563232,774.663818 
	C2525.447021,804.064941 2539.116699,833.573486 2552.394043,863.252441 
	C2560.522705,881.422363 2567.834961,899.962158 2575.276367,918.431580 
	C2576.980225,922.660156 2577.705811,927.282776 2579.313232,932.378418 
z"/>
</svg>